<svg width="34" height="32" viewBox="0 0 34 32" fill="none" xmlns="http://www.w3.org/2000/svg">
<circle cx="16.4291" cy="15.7969" r="13.4995" fill="black"/>
<path d="M17.3361 0L17.6332 0.907231C21.2025 1.16991 24.5235 2.68521 27.08 5.23908C29.9043 8.06049 31.4576 11.8086 31.4576 15.7975C31.4576 19.7864 29.9043 23.5369 27.08 26.3583C24.5186 28.9171 21.1903 30.4324 17.6137 30.6926L17.3337 31.5974C25.697 31.1693 32.3463 24.2593 32.3463 15.7999C32.3463 7.33811 25.6995 0.428077 17.3361 0ZM15.3445 30.6878C11.7922 30.4153 8.48826 28.9025 5.94152 26.3583C3.11722 23.5369 1.56385 19.7864 1.56385 15.7975C1.56385 11.8086 3.11722 8.05806 5.94152 5.23908C8.48583 2.69737 11.7849 1.18451 15.3348 0.909663L15.6196 0.00243225C7.28793 0.466993 0.675171 7.36 0.675171 15.7975C0.675171 24.2423 7.29767 31.1402 15.6367 31.5926L15.6342 31.5901L15.3445 30.6878Z" fill="url(#paint0_linear_2509_385)"/>
<path opacity="0.5" d="M17.47 31.1572L17.3336 31.595C24.2166 31.2423 29.9407 26.4994 31.7497 20.1123C29.8068 26.2416 24.1996 30.7631 17.47 31.1572ZM15.4954 31.1523C8.79254 30.7364 3.2121 26.2246 1.27405 20.1123C3.07819 26.4824 8.77793 31.2204 15.639 31.5925L15.6366 31.5901L15.4954 31.1523Z" fill="url(#paint1_linear_2509_385)"/>
<path d="M27.3819 4.94022C24.7109 2.27204 21.2293 0.705664 17.4919 0.472168L17.6356 0.905109C21.2049 1.16779 24.5259 2.68309 27.0824 5.23695C29.9067 8.05837 31.46 11.8065 31.46 15.7954C31.46 19.7843 29.9067 23.5348 27.0824 26.3562C24.521 28.9149 21.1927 30.4302 17.6161 30.6905L17.4724 31.1551C21.2171 30.9216 24.7061 29.3309 27.3819 26.6578C30.2841 23.7586 31.8837 19.901 31.8837 15.7978C31.8837 11.697 30.2841 7.83947 27.3819 4.94022ZM15.3445 30.6881C11.7898 30.4156 8.48581 28.9028 5.93907 26.3587C3.11477 23.5372 1.5614 19.7867 1.5614 15.7978C1.5614 11.8089 3.11477 8.05837 5.93907 5.23939C8.48338 2.69768 11.7825 1.18482 15.3323 0.909974L15.4687 0.477032C11.7557 0.72269 8.29834 2.28663 5.64203 4.94022C2.73738 7.83947 1.13776 11.697 1.13776 15.7978C1.13776 19.8986 2.73738 23.7561 5.6396 26.6578C8.30077 29.3163 11.7703 30.907 15.493 31.1526L15.3445 30.6881Z" fill="url(#paint2_linear_2509_385)"/>
<path opacity="0.5" d="M17.3362 0L17.492 0.471857C24.2119 0.870747 29.8094 5.36312 31.7523 11.4827C29.9408 5.09557 24.2192 0.352677 17.3362 0ZM1.27173 11.4827C3.20735 5.38015 8.77804 0.897502 15.4712 0.47429L15.6197 0.00243225C8.76587 0.384296 3.07587 5.11746 1.27173 11.4827Z" fill="url(#paint3_linear_2509_385)"/>
<path d="M26.6806 5.64008C24.2263 3.18594 21.0368 1.72902 17.6111 1.47363L17.3336 2.33465C20.6302 2.53166 23.7029 3.90832 26.0597 6.26031C28.6089 8.80688 30.0137 12.195 30.0137 15.7972C30.0137 19.4018 28.6089 22.7875 26.0597 25.334C23.7077 27.6836 20.6424 29.0603 17.3506 29.2597L17.6209 30.1207C21.0441 29.8629 24.2288 28.406 26.683 25.9543C29.3977 23.2399 30.8951 19.6328 30.8951 15.7947C30.8927 11.9591 29.3977 8.35205 26.6806 5.64008ZM15.6341 2.33708L15.3541 1.47607C11.9479 1.74361 8.78275 3.1981 6.34071 5.63765C3.62353 8.35205 2.1286 11.9591 2.1286 15.7972C2.1286 19.6353 3.62597 23.2423 6.34071 25.9567C8.78275 28.3963 11.9455 29.8483 15.3493 30.1183L15.6317 29.2573C12.3545 29.0481 9.30379 27.6739 6.96157 25.334C4.41239 22.7875 3.00754 19.3993 3.00754 15.7972C3.00754 12.195 4.41239 8.80688 6.96157 6.26031C9.30622 3.92048 12.357 2.54626 15.6341 2.33708Z" fill="url(#paint4_linear_2509_385)"/>
<path opacity="0.5" d="M26.8827 25.49C24.3408 27.9807 21.0296 29.4425 17.4748 29.6662L17.6185 30.1235C21.0417 29.8657 24.2264 28.4087 26.6806 25.957C27.7641 24.8747 28.6528 23.6488 29.332 22.3232C28.6771 23.4688 27.859 24.5342 26.8827 25.49ZM3.68933 22.3232C4.36619 23.6488 5.25731 24.8747 6.34077 25.957C8.78281 28.3966 11.9455 29.8486 15.3493 30.1186L15.4978 29.6638C11.9602 29.4303 8.66838 27.9685 6.13625 25.49C5.16479 24.5342 4.34428 23.4688 3.68933 22.3232Z" fill="url(#paint5_linear_2509_385)"/>
<path opacity="0.5" d="M26.6806 5.64008C24.2264 3.18594 21.0369 1.72902 17.6112 1.47363L17.4627 1.9309C21.0223 2.15223 24.3384 3.61645 26.8827 6.10951C27.8566 7.06295 28.6771 8.12828 29.332 9.2763C28.6552 7.94829 27.7641 6.72244 26.6806 5.64008ZM6.34077 5.64008C5.25731 6.72244 4.36619 7.94829 3.68933 9.27387C4.34428 8.12828 5.16479 7.06295 6.13868 6.10708C8.67082 3.62861 11.965 2.16683 15.5027 1.93333L15.3542 1.4785C11.9504 1.74605 8.78281 3.20053 6.34077 5.64008Z" fill="url(#paint6_linear_2509_385)"/>
<path d="M26.3568 5.96379C23.9537 3.56316 20.825 2.14759 17.4651 1.92139L17.3336 2.33487C20.6303 2.53188 23.7029 3.90854 26.0597 6.26053C28.6089 8.8071 30.0138 12.1952 30.0138 15.7974C30.0138 19.402 28.6089 22.7877 26.0597 25.3343C23.7078 27.6838 20.6424 29.0605 17.3507 29.2599L17.4797 29.6734C20.8348 29.4448 23.9561 28.0316 26.3568 25.6334C28.9863 23.0066 30.435 19.5139 30.435 15.7998C30.4325 12.0833 28.9863 8.59063 26.3568 5.96379ZM15.6342 2.3373L15.5002 1.92625C12.1622 2.16218 9.05548 3.57532 6.667 5.96379C4.03748 8.59063 2.58881 12.0833 2.58881 15.7974C2.58881 19.5114 4.03748 23.0042 6.667 25.631C9.05548 28.017 12.1622 29.4302 15.4978 29.6685L15.6317 29.2575C12.3546 29.0483 9.30383 27.6741 6.9616 25.3343C4.41243 22.7877 3.00758 19.3996 3.00758 15.7974C3.00758 12.1952 4.41243 8.8071 6.9616 6.26053C9.30626 3.9207 12.357 2.54648 15.6342 2.3373Z" fill="url(#paint7_linear_2509_385)"/>
<path d="M15.4832 0.452148L17.4821 1.87258L17.3336 2.33471L15.3347 0.909412L15.4832 0.452148Z" fill="url(#paint8_linear_2509_385)"/>
<path d="M17.6111 1.47152L17.465 1.92879L15.4831 0.452408L15.6194 0.00244141L17.6111 1.47152Z" fill="url(#paint9_linear_2509_385)"/>
<path d="M17.4821 0.452148L15.4832 1.87258L15.6341 2.33715L17.633 0.90698L17.4821 0.452148Z" fill="url(#paint10_linear_2509_385)"/>
<path d="M15.3542 1.47638L15.4832 1.87284L17.4822 0.452399L17.3361 0L15.3542 1.47638Z" fill="url(#paint11_linear_2509_385)"/>
<path d="M17.4871 0.472168L15.5004 1.92666L15.6343 2.33771L17.6332 0.907541L17.4871 0.472168Z" fill="url(#paint12_linear_2509_385)"/>
<path d="M15.3542 1.47638L15.5003 1.92635L17.487 0.471857L17.3361 0L15.3542 1.47638Z" fill="url(#paint13_linear_2509_385)"/>
<path opacity="0.8" d="M16.6105 0.540039C16.6105 0.540039 16.6616 0.705432 16.9295 0.890284C16.9295 0.890284 17.0682 0.955955 17.487 1.00946L15.8436 2.18911C15.8436 2.18911 16.0164 1.74644 15.9872 1.56645C15.9872 1.56645 15.7072 1.41079 15.4832 1.3816L16.6105 0.540039Z" fill="url(#paint14_linear_2509_385)"/>
<path d="M15.4759 0.477051L17.4651 1.92181L17.3336 2.33529L15.3347 0.909992L15.4759 0.477051Z" fill="url(#paint15_linear_2509_385)"/>
<path d="M17.6112 1.47152L17.4651 1.92149L15.476 0.476731L15.6196 0.00244141L17.6112 1.47152Z" fill="url(#paint16_linear_2509_385)"/>
<path d="M17.4749 29.6738L15.4882 31.1307L15.6367 31.5929L17.621 30.1238L17.4749 29.6738Z" fill="url(#paint17_linear_2509_385)"/>
<path d="M15.3591 30.7293L15.5052 31.1866L17.4871 29.7102L17.3508 29.2627L15.3591 30.7293Z" fill="url(#paint18_linear_2509_385)"/>
<path d="M15.5003 29.6714L17.4871 31.1307L17.3361 31.5953L15.3494 30.1189L15.5003 29.6714Z" fill="url(#paint19_linear_2509_385)"/>
<path d="M17.6137 30.7342L17.4871 31.1306L15.5003 29.6713L15.6342 29.2578L17.6137 30.7342Z" fill="url(#paint20_linear_2509_385)"/>
<path d="M15.5004 29.6714L17.4798 31.1575L17.3362 31.5953L15.3494 30.1189L15.5004 29.6714Z" fill="url(#paint21_linear_2509_385)"/>
<path d="M17.6138 30.6928L17.4799 31.1574L15.5004 29.6713L15.6343 29.2578L17.6138 30.6928Z" fill="url(#paint22_linear_2509_385)"/>
<path opacity="0.8" d="M16.372 29.793C16.372 29.793 16.3087 29.9657 16.1017 30.1335C16.1017 30.1335 15.9386 30.1943 15.5223 30.2478L16.8906 31.2645C16.8906 31.2645 16.9685 30.9823 16.9977 30.8024C16.9977 30.8024 17.2802 30.6443 17.5042 30.6126L16.372 29.793Z" fill="url(#paint23_linear_2509_385)"/>
<path d="M17.4749 29.6738L15.4954 31.1526L15.6366 31.5929L17.621 30.1238L17.4749 29.6738Z" fill="url(#paint24_linear_2509_385)"/>
<path d="M15.3444 30.688L15.4954 31.1526L17.4748 29.6737L17.3506 29.2627L15.3444 30.688Z" fill="url(#paint25_linear_2509_385)"/>
<path opacity="0.8" d="M0.796873 17.8599L1.21565 17.5024L1.74642 18.1396L1.56382 16.7435L2.13111 16.6851C2.13111 16.6851 2.24798 17.7359 2.32346 18.1567L2.6838 17.4197L3.12449 17.5656C3.12449 17.5656 2.98327 16.6389 3.01249 15.576L0.550964 15.4106L0.796873 17.8599Z" fill="url(#paint26_linear_2509_385)"/>
<path opacity="0.8" d="M32.2197 17.8336L31.8082 17.4833L31.2969 18.0209L31.46 16.688L30.8952 16.6685C30.8952 16.6685 30.7783 17.7193 30.7028 18.14L30.3425 17.4031L29.9042 17.515C29.9042 17.515 30.043 16.6199 30.0138 15.557L32.4753 15.3892L32.2197 17.8336Z" fill="url(#paint27_linear_2509_385)"/>
<path d="M29.6171 14.5792C28.8843 15.8099 29.734 17.1184 30.8832 17.3227C32.0348 17.5271 33.3666 16.4593 32.9284 14.9708C32.4901 13.4822 30.2599 13.4992 29.6171 14.5792Z" fill="url(#paint28_linear_2509_385)"/>
<path opacity="0.7" d="M30.3837 14.2579C29.7458 14.5863 29.4999 15.7002 30.0575 16.391C30.615 17.0818 31.9201 17.162 32.446 16.194C33.0157 15.153 31.9809 13.4358 30.3837 14.2579Z" fill="url(#paint29_linear_2509_385)"/>
<path opacity="0.8" d="M32.4827 15.4594C32.4827 16.1842 31.8959 16.7704 31.1704 16.7704C30.4448 16.7704 29.858 16.1842 29.858 15.4594C29.858 14.7346 30.4448 14.1484 31.1704 14.1484C31.8959 14.146 32.4827 14.7346 32.4827 15.4594Z" fill="url(#paint30_linear_2509_385)"/>
<path d="M32.446 15.4112C32.446 16.1166 31.8739 16.6857 31.1702 16.6857C30.4641 16.6857 29.8944 16.1141 29.8944 15.4112C29.8944 14.7083 30.4666 14.1367 31.1702 14.1367C31.8739 14.1367 32.446 14.7059 32.446 15.4112Z" fill="url(#paint31_radial_2509_385)"/>
<path opacity="0.5" d="M32.446 15.4107C32.446 16.1161 31.8739 16.6852 31.1702 16.6852C30.4641 16.6852 29.8944 16.1136 29.8944 15.4107C29.8944 15.0678 30.0308 14.7564 30.2499 14.5278C30.1403 14.6981 30.077 14.9024 30.077 15.1237C30.077 15.7172 30.5396 16.1988 31.1093 16.1988C31.6791 16.1988 32.1417 15.7172 32.1417 15.1237C32.1417 14.771 31.9785 14.4597 31.7278 14.2627C32.1514 14.4694 32.446 14.9048 32.446 15.4107Z" fill="url(#paint32_linear_2509_385)"/>
<path opacity="0.3" d="M31.9032 15.1703C31.9032 15.6082 31.5477 15.9657 31.107 15.9657C30.6688 15.9657 30.3109 15.6106 30.3109 15.1703C30.3109 14.7325 30.6663 14.375 31.107 14.375C31.5477 14.375 31.9032 14.7325 31.9032 15.1703Z" fill="url(#paint33_radial_2509_385)"/>
<path d="M31.0656 14.7421C31.051 14.8784 31.4308 15.034 31.5477 15.034C31.5477 15.034 31.7985 14.7932 31.7035 14.5646C31.7035 14.5646 31.4259 14.3457 31.1776 14.4089C31.18 14.4089 31.0875 14.5549 31.0656 14.7421Z" fill="url(#paint34_linear_2509_385)"/>
<path d="M30.8829 17.3251C30.0137 17.1719 29.3174 16.3887 29.3442 15.4839C29.4684 16.5176 30.2207 17.4199 31.7254 17.0624C31.908 17.0186 32.9281 16.5468 33.0134 15.479C33.0572 16.6951 31.8982 17.5051 30.8829 17.3251Z" fill="url(#paint35_linear_2509_385)"/>
<path opacity="0.5" d="M32.8673 14.7978C32.804 14.951 32.0029 14.1727 32.1101 14.0098C32.4363 14.1703 32.7114 14.4305 32.8673 14.7978Z" fill="url(#paint36_linear_2509_385)"/>
<path d="M0.273606 14.5792C-0.459252 15.8099 0.390474 17.1184 1.53967 17.3227C2.69131 17.5271 4.02311 16.4593 3.58486 14.9708C3.1466 13.4822 0.918813 13.4992 0.273606 14.5792Z" fill="url(#paint37_linear_2509_385)"/>
<path opacity="0.7" d="M1.0403 14.2579C0.4024 14.5863 0.156491 15.7002 0.714047 16.391C1.2716 17.0818 2.57663 17.162 3.10253 16.194C3.67226 15.153 2.63749 13.4358 1.0403 14.2579Z" fill="url(#paint38_linear_2509_385)"/>
<path opacity="0.8" d="M1.82671 16.8215C2.56763 16.8215 3.16826 16.2214 3.16826 15.4813C3.16826 14.7411 2.56763 14.1411 1.82671 14.1411C1.0858 14.1411 0.485168 14.7411 0.485168 15.4813C0.485168 16.2214 1.0858 16.8215 1.82671 16.8215Z" fill="url(#paint39_linear_2509_385)"/>
<path d="M3.10258 15.4112C3.10258 16.1166 2.53041 16.6857 1.82677 16.6857C1.12313 16.6857 0.550964 16.1141 0.550964 15.4112C0.550964 14.7083 1.12313 14.1367 1.82677 14.1367C2.53041 14.1367 3.10258 14.7059 3.10258 15.4112Z" fill="url(#paint40_radial_2509_385)"/>
<path opacity="0.5" d="M3.10258 15.4107C3.10258 16.1161 2.53041 16.6852 1.82677 16.6852C1.12069 16.6852 0.550964 16.1136 0.550964 15.4107C0.550964 15.0678 0.68731 14.7564 0.906437 14.5278C0.796873 14.6981 0.73357 14.9024 0.73357 15.1237C0.73357 15.7172 1.19617 16.1988 1.7659 16.1988C2.33563 16.1988 2.79823 15.7172 2.79823 15.1237C2.79823 14.771 2.6351 14.4597 2.38433 14.2627C2.80797 14.4694 3.10258 14.9048 3.10258 15.4107Z" fill="url(#paint41_linear_2509_385)"/>
<path opacity="0.3" d="M2.55967 15.1703C2.55967 15.6082 2.2042 15.9657 1.76351 15.9657C1.32282 15.9657 0.967346 15.6106 0.967346 15.1703C0.967346 14.7325 1.32282 14.375 1.76351 14.375C2.2042 14.375 2.55967 14.7325 2.55967 15.1703Z" fill="url(#paint42_radial_2509_385)"/>
<path d="M1.72459 14.7421C1.70998 14.8784 2.0898 15.034 2.20667 15.034C2.20667 15.034 2.45745 14.7932 2.36249 14.5646C2.36249 14.5646 2.08493 14.3457 1.83659 14.4089C1.83659 14.4089 1.74407 14.5549 1.72459 14.7421Z" fill="url(#paint43_linear_2509_385)"/>
<path d="M1.53951 17.3251C0.670302 17.1719 -0.0260347 16.3887 0.000747481 15.4839C0.124919 16.5176 0.877255 17.4199 2.38193 17.0624C2.56453 17.0186 3.58469 16.5468 3.66991 15.479C3.71373 16.6951 2.55479 17.5051 1.53951 17.3251Z" fill="url(#paint44_linear_2509_385)"/>
<path opacity="0.5" d="M3.52376 14.7978C3.46046 14.951 2.65943 14.1727 2.76656 14.0098C3.09282 14.1703 3.36794 14.4305 3.52376 14.7978Z" fill="url(#paint45_linear_2509_385)"/>
<path d="M24.5546 12.7036L16.5073 21.37L8.45996 12.7036" stroke="url(#paint46_linear_2509_385)" stroke-width="1.03171" stroke-linecap="round"/>
<defs>
<linearGradient id="paint0_linear_2509_385" x1="16.5111" y1="31.5966" x2="16.5111" y2="9.79316e-05" gradientUnits="userSpaceOnUse">
<stop stop-color="#CA6B34"/>
<stop offset="0.7401" stop-color="#FFBD2B"/>
<stop offset="1" stop-color="#FFA933"/>
</linearGradient>
<linearGradient id="paint1_linear_2509_385" x1="16.5111" y1="20.1141" x2="16.5111" y2="31.5966" gradientUnits="userSpaceOnUse">
<stop stop-color="#F08D1D"/>
<stop offset="1" stop-color="#8D2C1B"/>
</linearGradient>
<linearGradient id="paint2_linear_2509_385" x1="16.5111" y1="0.472508" x2="16.5111" y2="31.1558" gradientUnits="userSpaceOnUse">
<stop stop-color="#CA6B34"/>
<stop offset="0.1742" stop-color="#CC6E34"/>
<stop offset="0.2919" stop-color="#D27733"/>
<stop offset="0.3931" stop-color="#DB8631"/>
<stop offset="0.4848" stop-color="#E99B2F"/>
<stop offset="0.5694" stop-color="#FBB72C"/>
<stop offset="0.5853" stop-color="#FFBD2B"/>
<stop offset="1" stop-color="#FFA933"/>
</linearGradient>
<linearGradient id="paint3_linear_2509_385" x1="16.5112" y1="11.4825" x2="16.5112" y2="9.71857e-05" gradientUnits="userSpaceOnUse">
<stop stop-color="#EBBD38"/>
<stop offset="1" stop-color="#FFF29E"/>
</linearGradient>
<linearGradient id="paint4_linear_2509_385" x1="16.511" y1="30.1232" x2="16.511" y2="1.47249" gradientUnits="userSpaceOnUse">
<stop stop-color="#CA6B34"/>
<stop offset="0.7401" stop-color="#FFBD2B"/>
<stop offset="1" stop-color="#FFA933"/>
</linearGradient>
<linearGradient id="paint5_linear_2509_385" x1="16.5113" y1="22.3232" x2="16.5113" y2="30.1235" gradientUnits="userSpaceOnUse">
<stop stop-color="#F08D1D"/>
<stop offset="1" stop-color="#8D2C1B"/>
</linearGradient>
<linearGradient id="paint6_linear_2509_385" x1="16.5113" y1="9.27312" x2="16.5113" y2="1.47244" gradientUnits="userSpaceOnUse">
<stop stop-color="#EBBD38"/>
<stop offset="1" stop-color="#FFF29E"/>
</linearGradient>
<linearGradient id="paint7_linear_2509_385" x1="16.5111" y1="1.92241" x2="16.5111" y2="29.6732" gradientUnits="userSpaceOnUse">
<stop stop-color="#CA6B34"/>
<stop offset="0.1742" stop-color="#CC6E34"/>
<stop offset="0.2919" stop-color="#D27733"/>
<stop offset="0.3931" stop-color="#DB8631"/>
<stop offset="0.4848" stop-color="#E99B2F"/>
<stop offset="0.5694" stop-color="#FBB72C"/>
<stop offset="0.5853" stop-color="#FFBD2B"/>
<stop offset="1" stop-color="#FFA933"/>
</linearGradient>
<linearGradient id="paint8_linear_2509_385" x1="15.9545" y1="2.27539" x2="16.2915" y2="1.61843" gradientUnits="userSpaceOnUse">
<stop stop-color="#D16509"/>
<stop offset="1" stop-color="#8D2C1B"/>
</linearGradient>
<linearGradient id="paint9_linear_2509_385" x1="16.669" y1="0.95175" x2="19.1568" y2="0.66509" gradientUnits="userSpaceOnUse">
<stop stop-color="#CA6B34"/>
<stop offset="1" stop-color="#FFBD2B"/>
</linearGradient>
<linearGradient id="paint10_linear_2509_385" x1="15.1041" y1="2.5731" x2="18.2409" y2="0.0128051" gradientUnits="userSpaceOnUse">
<stop stop-color="#D16509"/>
<stop offset="1" stop-color="#8D2C1B"/>
</linearGradient>
<linearGradient id="paint11_linear_2509_385" x1="16.6151" y1="1.31848" x2="16.2481" y2="0.636281" gradientUnits="userSpaceOnUse">
<stop stop-color="#E39330"/>
<stop offset="1" stop-color="#FFCD61"/>
</linearGradient>
<linearGradient id="paint12_linear_2509_385" x1="16.3964" y1="1.05674" x2="16.7768" y2="1.86326" gradientUnits="userSpaceOnUse">
<stop stop-color="#D16509"/>
<stop offset="1" stop-color="#8D2C1B"/>
</linearGradient>
<linearGradient id="paint13_linear_2509_385" x1="16.4213" y1="1.93997" x2="16.4213" y2="0.0137423" gradientUnits="userSpaceOnUse">
<stop stop-color="#CA6B34"/>
<stop offset="1" stop-color="#FFBD2B"/>
</linearGradient>
<linearGradient id="paint14_linear_2509_385" x1="17.4874" y1="1.36501" x2="15.482" y2="1.36501" gradientUnits="userSpaceOnUse">
<stop stop-color="#F08D1D"/>
<stop offset="1" stop-color="#8D2C1B"/>
</linearGradient>
<linearGradient id="paint15_linear_2509_385" x1="17.8433" y1="2.59158" x2="14.7178" y2="0.0405651" gradientUnits="userSpaceOnUse">
<stop stop-color="#D16509"/>
<stop offset="1" stop-color="#8D2C1B"/>
</linearGradient>
<linearGradient id="paint16_linear_2509_385" x1="16.5727" y1="1.72192" x2="16.5428" y2="0.960504" gradientUnits="userSpaceOnUse">
<stop stop-color="#E39330"/>
<stop offset="1" stop-color="#FFCD61"/>
</linearGradient>
<linearGradient id="paint17_linear_2509_385" x1="17.0297" y1="31.555" x2="16.6777" y2="30.8687" gradientUnits="userSpaceOnUse">
<stop stop-color="#D16509"/>
<stop offset="1" stop-color="#8D2C1B"/>
</linearGradient>
<linearGradient id="paint18_linear_2509_385" x1="16.3003" y1="30.2097" x2="13.8126" y2="29.923" gradientUnits="userSpaceOnUse">
<stop stop-color="#CA6B34"/>
<stop offset="1" stop-color="#FFBD2B"/>
</linearGradient>
<linearGradient id="paint19_linear_2509_385" x1="17.8816" y1="31.8162" x2="14.7274" y2="29.2417" gradientUnits="userSpaceOnUse">
<stop stop-color="#D16509"/>
<stop offset="1" stop-color="#8D2C1B"/>
</linearGradient>
<linearGradient id="paint20_linear_2509_385" x1="16.3542" y1="30.5764" x2="16.7212" y2="29.8942" gradientUnits="userSpaceOnUse">
<stop stop-color="#E39330"/>
<stop offset="1" stop-color="#FFCD61"/>
</linearGradient>
<linearGradient id="paint21_linear_2509_385" x1="15.9398" y1="31.5641" x2="16.2953" y2="30.8711" gradientUnits="userSpaceOnUse">
<stop stop-color="#D16509"/>
<stop offset="1" stop-color="#8D2C1B"/>
</linearGradient>
<linearGradient id="paint22_linear_2509_385" x1="16.5581" y1="31.1702" x2="16.5581" y2="29.2714" gradientUnits="userSpaceOnUse">
<stop stop-color="#CA6B34"/>
<stop offset="1" stop-color="#FFBD2B"/>
</linearGradient>
<linearGradient id="paint23_linear_2509_385" x1="15.5209" y1="30.5278" x2="17.5044" y2="30.5278" gradientUnits="userSpaceOnUse">
<stop stop-color="#F08D1D"/>
<stop offset="1" stop-color="#8D2C1B"/>
</linearGradient>
<linearGradient id="paint24_linear_2509_385" x1="15.1002" y1="31.8255" x2="18.2542" y2="29.2512" gradientUnits="userSpaceOnUse">
<stop stop-color="#D16509"/>
<stop offset="1" stop-color="#8D2C1B"/>
</linearGradient>
<linearGradient id="paint25_linear_2509_385" x1="16.3796" y1="30.9561" x2="16.409" y2="30.2047" gradientUnits="userSpaceOnUse">
<stop stop-color="#E39330"/>
<stop offset="1" stop-color="#FFCD61"/>
</linearGradient>
<linearGradient id="paint26_linear_2509_385" x1="1.83648" y1="15.1802" x2="1.83648" y2="17.6138" gradientUnits="userSpaceOnUse">
<stop stop-color="#F08D1D"/>
<stop offset="1" stop-color="#8D2C1B"/>
</linearGradient>
<linearGradient id="paint27_linear_2509_385" x1="31.189" y1="15.1806" x2="31.189" y2="17.6142" gradientUnits="userSpaceOnUse">
<stop stop-color="#F08D1D"/>
<stop offset="1" stop-color="#8D2C1B"/>
</linearGradient>
<linearGradient id="paint28_linear_2509_385" x1="31.1796" y1="17.3581" x2="31.1796" y2="14.0202" gradientUnits="userSpaceOnUse">
<stop stop-color="#CA6B34"/>
<stop offset="1" stop-color="#FFBD2B"/>
</linearGradient>
<linearGradient id="paint29_linear_2509_385" x1="31.1752" y1="17.2502" x2="31.1752" y2="14.8432" gradientUnits="userSpaceOnUse">
<stop stop-color="#F08D1D"/>
<stop offset="1" stop-color="#8D2C1B"/>
</linearGradient>
<linearGradient id="paint30_linear_2509_385" x1="31.1696" y1="17.4183" x2="31.1696" y2="15.6923" gradientUnits="userSpaceOnUse">
<stop stop-color="#F08D1D"/>
<stop offset="0.2148" stop-color="#D4721C"/>
<stop offset="0.5567" stop-color="#AE4C1C"/>
<stop offset="0.8305" stop-color="#96351B"/>
<stop offset="1" stop-color="#8D2C1B"/>
</linearGradient>
<radialGradient id="paint31_radial_2509_385" cx="0" cy="0" r="1" gradientUnits="userSpaceOnUse" gradientTransform="translate(31.1694 15.411) scale(1.27649 1.27518)">
<stop stop-color="#D14B4B"/>
<stop offset="0.1657" stop-color="#C84141"/>
<stop offset="0.4446" stop-color="#B02727"/>
<stop offset="0.7282" stop-color="#910606"/>
<stop offset="0.8267" stop-color="#940F0F"/>
<stop offset="0.9854" stop-color="#9D2626"/>
<stop offset="1" stop-color="#9E2929"/>
</radialGradient>
<linearGradient id="paint32_linear_2509_385" x1="31.1695" y1="16.6039" x2="31.1695" y2="15.087" gradientUnits="userSpaceOnUse">
<stop stop-color="#8B2788"/>
<stop offset="1" stop-color="white"/>
</linearGradient>
<radialGradient id="paint33_radial_2509_385" cx="0" cy="0" r="1" gradientUnits="userSpaceOnUse" gradientTransform="translate(31.1079 15.171) scale(0.795651 0.794836)">
<stop offset="0.1627" stop-color="#E61C24"/>
<stop offset="0.2425" stop-color="#DA1B22"/>
<stop offset="0.387" stop-color="#BA171D"/>
<stop offset="0.5797" stop-color="#861015"/>
<stop offset="0.8104" stop-color="#3F080A"/>
<stop offset="1"/>
</radialGradient>
<linearGradient id="paint34_linear_2509_385" x1="31.066" y1="14.7158" x2="31.7258" y2="14.7158" gradientUnits="userSpaceOnUse">
<stop stop-color="white"/>
<stop offset="1" stop-color="#FFF7C4"/>
</linearGradient>
<linearGradient id="paint35_linear_2509_385" x1="29.3439" y1="16.4139" x2="33.0144" y2="16.4139" gradientUnits="userSpaceOnUse">
<stop stop-color="#D16509"/>
<stop offset="1" stop-color="#8D2C1B"/>
</linearGradient>
<linearGradient id="paint36_linear_2509_385" x1="32.0985" y1="14.4134" x2="32.8664" y2="14.4134" gradientUnits="userSpaceOnUse">
<stop stop-color="#EBBD38"/>
<stop offset="1" stop-color="#FFF29E"/>
</linearGradient>
<linearGradient id="paint37_linear_2509_385" x1="1.83639" y1="17.3581" x2="1.83639" y2="14.0202" gradientUnits="userSpaceOnUse">
<stop stop-color="#CA6B34"/>
<stop offset="1" stop-color="#FFBD2B"/>
</linearGradient>
<linearGradient id="paint38_linear_2509_385" x1="1.83215" y1="17.2502" x2="1.83215" y2="14.8432" gradientUnits="userSpaceOnUse">
<stop stop-color="#F08D1D"/>
<stop offset="1" stop-color="#8D2C1B"/>
</linearGradient>
<linearGradient id="paint39_linear_2509_385" x1="1.8263" y1="17.5899" x2="1.8263" y2="15.6499" gradientUnits="userSpaceOnUse">
<stop stop-color="#F08D1D"/>
<stop offset="1" stop-color="#8D2C1B"/>
</linearGradient>
<radialGradient id="paint40_radial_2509_385" cx="0" cy="0" r="1" gradientUnits="userSpaceOnUse" gradientTransform="translate(1.82636 15.411) scale(1.27649 1.27518)">
<stop stop-color="#D14B4B"/>
<stop offset="0.1657" stop-color="#C84141"/>
<stop offset="0.4446" stop-color="#B02727"/>
<stop offset="0.7282" stop-color="#910606"/>
<stop offset="0.8267" stop-color="#940F0F"/>
<stop offset="0.9854" stop-color="#9D2626"/>
<stop offset="1" stop-color="#9E2929"/>
</radialGradient>
<linearGradient id="paint41_linear_2509_385" x1="2.09427" y1="16.5033" x2="1.80712" y2="15.3295" gradientUnits="userSpaceOnUse">
<stop stop-color="#8B2788"/>
<stop offset="1" stop-color="white"/>
</linearGradient>
<radialGradient id="paint42_radial_2509_385" cx="0" cy="0" r="1" gradientUnits="userSpaceOnUse" gradientTransform="translate(1.76477 15.171) scale(0.79565 0.794836)">
<stop offset="0.1627" stop-color="#E61C24"/>
<stop offset="0.2425" stop-color="#DA1B22"/>
<stop offset="0.387" stop-color="#BA171D"/>
<stop offset="0.5797" stop-color="#861015"/>
<stop offset="0.8104" stop-color="#3F080A"/>
<stop offset="1"/>
</radialGradient>
<linearGradient id="paint43_linear_2509_385" x1="1.72296" y1="14.7158" x2="2.38275" y2="14.7158" gradientUnits="userSpaceOnUse">
<stop stop-color="white"/>
<stop offset="1" stop-color="#FFF7C4"/>
</linearGradient>
<linearGradient id="paint44_linear_2509_385" x1="0.000771829" y1="16.4139" x2="3.67137" y2="16.4139" gradientUnits="userSpaceOnUse">
<stop stop-color="#D16509"/>
<stop offset="1" stop-color="#8D2C1B"/>
</linearGradient>
<linearGradient id="paint45_linear_2509_385" x1="2.75536" y1="14.4134" x2="3.52323" y2="14.4134" gradientUnits="userSpaceOnUse">
<stop stop-color="#EBBD38"/>
<stop offset="1" stop-color="#FFF29E"/>
</linearGradient>
<linearGradient id="paint46_linear_2509_385" x1="8.45996" y1="17.0368" x2="33.2137" y2="17.0368" gradientUnits="userSpaceOnUse">
<stop stop-color="#FEFFBC"/>
<stop offset="1" stop-color="#FFC671"/>
</linearGradient>
</defs>
</svg>
